<svg xmlns="http://www.w3.org/2000/svg" width="128" height="128" viewBox="0 0 128 128"><path d="M30 10h46l26 26v74a8 8 0 0 1-8 8H30a8 8 0 0 1-8-8V18a8 8 0 0 1 8-8z" fill="#000" opacity=".14" transform="translate(0 2.5)"/><path d="M30 10h46l26 26v74a8 8 0 0 1-8 8H30a8 8 0 0 1-8-8V18a8 8 0 0 1 8-8z" fill="#fbfaff" stroke="#d7d2e4" stroke-width="1.5"/><path d="M76 10v18a8 8 0 0 0 8 8h18z" fill="#e3ddf0"/><path d="M40 48l22-10 22 10v24l-22 10-22-10z" fill="#ffd9a8"/><path d="M40 48l22 10 22-10M62 58v24" fill="none" stroke="#c98a2e" stroke-width="3"/><rect x="39.0" y="86" width="46" height="22" rx="6" fill="#d8433f"/><text x="62" y="102" text-anchor="middle" font-family="Inter, Noto Sans, DejaVu Sans, sans-serif" font-weight="800" font-size="15" letter-spacing=".4" fill="#fff">DEB</text></svg>
