<svg xmlns="http://www.w3.org/2000/svg" width="128" height="128" viewBox="0 0 128 128"><path d="M30 10h46l26 26v74a8 8 0 0 1-8 8H30a8 8 0 0 1-8-8V18a8 8 0 0 1 8-8z" fill="#000" opacity=".14" transform="translate(0 2.5)"/><path d="M30 10h46l26 26v74a8 8 0 0 1-8 8H30a8 8 0 0 1-8-8V18a8 8 0 0 1 8-8z" fill="#fbfaff" stroke="#d7d2e4" stroke-width="1.5"/><path d="M76 10v18a8 8 0 0 0 8 8h18z" fill="#e3ddf0"/><rect x="34" y="40" width="56" height="40" rx="6" fill="#ffe3f1"/><path d="M38 76l16-18 10 11 8-7 14 14z" fill="#e0559f"/><circle cx="76" cy="52" r="6" fill="#ffae3a"/><rect x="39.0" y="86" width="46" height="22" rx="6" fill="#e0559f"/><text x="62" y="102" text-anchor="middle" font-family="Inter, Noto Sans, DejaVu Sans, sans-serif" font-weight="800" font-size="15" letter-spacing=".4" fill="#fff">IMG</text></svg>
