<svg xmlns="http://www.w3.org/2000/svg" width="128" height="128" viewBox="0 0 128 128"><defs><radialGradient id="core" cx="0.72" cy="0.26" r="0.62"><stop offset="0" stop-color="#fff" stop-opacity="0.95"/><stop offset="0.18" stop-color="#6b7489" stop-opacity="0.85"/><stop offset="0.6" stop-color="#343a4a" stop-opacity="0.35"/><stop offset="1" stop-color="#0a0714" stop-opacity="0"/></radialGradient><radialGradient id="deep" cx="0.3" cy="0.85" r="0.9"><stop offset="0" stop-color="#343a4a" stop-opacity="0.35"/><stop offset="1" stop-color="#0a0714" stop-opacity="0"/></radialGradient><linearGradient id="arm" x1="0" y1="0" x2="1" y2="1"><stop offset="0" stop-color="#6b7489" stop-opacity="0"/><stop offset="0.5" stop-color="#6b7489" stop-opacity="0.75"/><stop offset="1" stop-color="#343a4a" stop-opacity="0"/></linearGradient><clipPath id="plate"><rect x="8" y="8" width="112" height="112" rx="30"/></clipPath></defs><rect x="9" y="12" width="110" height="110" rx="30" fill="#000" opacity=".3"/><rect x="8" y="8" width="112" height="112" rx="30" fill="#0a0714"/><g clip-path="url(#plate)"><rect x="8" y="8" width="112" height="112" fill="url(#deep)"/><rect x="8" y="8" width="112" height="112" fill="url(#core)"/><path d="M96 30C70 26 34 44 22 78" fill="none" stroke="url(#arm)" stroke-width="11" stroke-linecap="round" opacity=".8"/><path d="M104 46C92 76 56 100 20 102" fill="none" stroke="url(#arm)" stroke-width="7" stroke-linecap="round" opacity=".5"/><circle cx="43" cy="17" r="0.9" fill="#fff" opacity="0.78"/><circle cx="32" cy="47" r="2.1" fill="#fff" opacity="0.69"/><circle cx="20" cy="56" r="1.3" fill="#fff" opacity="0.54"/><circle cx="103" cy="83" r="2.1" fill="#fff" opacity="0.79"/><circle cx="62" cy="101" r="0.9" fill="#fff" opacity="0.86"/><circle cx="65" cy="19" r="1.0" fill="#fff" opacity="0.84"/><circle cx="87" cy="96" r="1.2" fill="#fff" opacity="0.58"/><circle cx="38" cy="22" r="1.0" fill="#fff" opacity="0.86"/><circle cx="96" cy="39" r="2.2" fill="#fff" opacity="0.72"/><circle cx="19" cy="48" r="2.2" fill="#fff" opacity="0.58"/><circle cx="47" cy="24" r="1.5" fill="#fff" opacity="0.57"/><circle cx="114" cy="21" r="1.7" fill="#fff" opacity="0.35"/><circle cx="20" cy="34" r="1.6" fill="#fff" opacity="0.64"/><circle cx="20" cy="66" r="2.4" fill="#fff" opacity="0.66"/></g><rect x="8.75" y="8.75" width="110.5" height="110.5" rx="29.25" fill="none" stroke="#fff" stroke-opacity=".16" stroke-width="1.5"/><path d="M26 54a10 10 0 0 1 10-10h10l6-8h24l6 8h10a10 10 0 0 1 10 10v30a10 10 0 0 1-10 10H36a10 10 0 0 1-10-10z" fill="#ffffff" /><circle cx="64" cy="68" r="16" fill="#2b3040"/><circle cx="64" cy="68" r="9" fill="#5a78ff"/><circle cx="60" cy="64" r="3" fill="#fff" opacity=".8"/></svg>
