<svg xmlns="http://www.w3.org/2000/svg" width="128" height="128" viewBox="0 0 128 128"><defs><linearGradient id="bg" x1="0" y1="0" x2="0.35" y2="1"><stop offset="0" stop-color="#ffc65c"/><stop offset="1" stop-color="#f0902a"/></linearGradient><linearGradient id="hl" x1="0" y1="0" x2="0" y2="1"><stop offset="0" stop-color="#fff" stop-opacity=".30"/><stop offset=".45" stop-color="#fff" stop-opacity="0"/></linearGradient></defs><rect x="9" y="11" width="110" height="110" rx="27" fill="#000" opacity=".22"/><rect x="8" y="8" width="112" height="112" rx="28" fill="url(#bg)"/><rect x="8" y="8" width="112" height="112" rx="28" fill="url(#hl)"/><rect x="8.5" y="8.5" width="111" height="111" rx="27.5" fill="none" stroke="#fff" stroke-opacity=".18"/><path d="M36 26h40l14 14v56a6 6 0 0 1-6 6H36a6 6 0 0 1-6-6V32a6 6 0 0 1 6-6z" fill="#ffffff" /><path d="M40 50h26M40 62h32M40 74h20" fill="none" stroke="#f0a23a" stroke-width="5" stroke-linecap="round" stroke-linejoin="round" /><path d="M92 44l10 10-30 30-13 3 3-13z" fill="#3a2a1a" /><path d="M92 44l10 10 4-4-10-10z" fill="#ff7a5c" /></svg>
