<svg xmlns="http://www.w3.org/2000/svg" width="128" height="128" viewBox="0 0 128 128"><defs><radialGradient id="core" cx="0.72" cy="0.26" r="0.62"><stop offset="0" stop-color="#fff" stop-opacity="0.95"/><stop offset="0.18" stop-color="#3b4467" stop-opacity="0.85"/><stop offset="0.6" stop-color="#1d2238" stop-opacity="0.35"/><stop offset="1" stop-color="#0a0714" stop-opacity="0"/></radialGradient><radialGradient id="deep" cx="0.3" cy="0.85" r="0.9"><stop offset="0" stop-color="#1d2238" stop-opacity="0.35"/><stop offset="1" stop-color="#0a0714" stop-opacity="0"/></radialGradient><linearGradient id="arm" x1="0" y1="0" x2="1" y2="1"><stop offset="0" stop-color="#3b4467" stop-opacity="0"/><stop offset="0.5" stop-color="#3b4467" stop-opacity="0.75"/><stop offset="1" stop-color="#1d2238" stop-opacity="0"/></linearGradient><clipPath id="plate"><rect x="8" y="8" width="112" height="112" rx="30"/></clipPath></defs><rect x="9" y="12" width="110" height="110" rx="30" fill="#000" opacity=".3"/><rect x="8" y="8" width="112" height="112" rx="30" fill="#0a0714"/><g clip-path="url(#plate)"><rect x="8" y="8" width="112" height="112" fill="url(#deep)"/><rect x="8" y="8" width="112" height="112" fill="url(#core)"/><path d="M96 30C70 26 34 44 22 78" fill="none" stroke="url(#arm)" stroke-width="11" stroke-linecap="round" opacity=".8"/><path d="M104 46C92 76 56 100 20 102" fill="none" stroke="url(#arm)" stroke-width="7" stroke-linecap="round" opacity=".5"/><circle cx="108" cy="54" r="2.1" fill="#fff" opacity="0.65"/><circle cx="43" cy="114" r="1.4" fill="#fff" opacity="0.38"/><circle cx="83" cy="34" r="1.8" fill="#fff" opacity="0.58"/><circle cx="94" cy="109" r="1.3" fill="#fff" opacity="0.38"/><circle cx="28" cy="22" r="1.4" fill="#fff" opacity="0.53"/><circle cx="103" cy="45" r="0.9" fill="#fff" opacity="0.89"/><circle cx="25" cy="73" r="1.9" fill="#fff" opacity="0.54"/><circle cx="112" cy="71" r="1.8" fill="#fff" opacity="0.72"/><circle cx="110" cy="84" r="2.2" fill="#fff" opacity="0.54"/><circle cx="102" cy="70" r="0.8" fill="#fff" opacity="0.39"/><circle cx="94" cy="23" r="1.7" fill="#fff" opacity="0.43"/><circle cx="40" cy="107" r="1.7" fill="#fff" opacity="0.76"/><circle cx="97" cy="88" r="1.6" fill="#fff" opacity="0.56"/><circle cx="13" cy="80" r="1.4" fill="#fff" opacity="0.64"/><circle cx="31" cy="80" r="2.0" fill="#fff" opacity="0.56"/><circle cx="104" cy="79" r="2.1" fill="#fff" opacity="0.39"/><circle cx="15" cy="110" r="1.9" fill="#fff" opacity="0.57"/><circle cx="20" cy="104" r="1.5" fill="#fff" opacity="0.59"/><circle cx="107" cy="59" r="1.4" fill="#fff" opacity="0.46"/></g><rect x="8.75" y="8.75" width="110.5" height="110.5" rx="29.25" fill="none" stroke="#fff" stroke-opacity=".16" stroke-width="1.5"/><circle cx="64" cy="64" r="36" fill="#fff"/><path d="M93.0 64.0L96.0 64.0" fill="none" stroke="#2a2f45" stroke-width="3" stroke-linecap="round" stroke-linejoin="round" /><path d="M89.1 78.5L91.7 80.0" fill="none" stroke="#2a2f45" stroke-width="3" stroke-linecap="round" stroke-linejoin="round" /><path d="M78.5 89.1L80.0 91.7" fill="none" stroke="#2a2f45" stroke-width="3" stroke-linecap="round" stroke-linejoin="round" /><path d="M64.0 93.0L64.0 96.0" fill="none" stroke="#2a2f45" stroke-width="3" stroke-linecap="round" stroke-linejoin="round" /><path d="M49.5 89.1L48.0 91.7" fill="none" stroke="#2a2f45" stroke-width="3" stroke-linecap="round" stroke-linejoin="round" /><path d="M38.9 78.5L36.3 80.0" fill="none" stroke="#2a2f45" stroke-width="3" stroke-linecap="round" stroke-linejoin="round" /><path d="M35.0 64.0L32.0 64.0" fill="none" stroke="#2a2f45" stroke-width="3" stroke-linecap="round" stroke-linejoin="round" /><path d="M38.9 49.5L36.3 48.0" fill="none" stroke="#2a2f45" stroke-width="3" stroke-linecap="round" stroke-linejoin="round" /><path d="M49.5 38.9L48.0 36.3" fill="none" stroke="#2a2f45" stroke-width="3" stroke-linecap="round" stroke-linejoin="round" /><path d="M64.0 35.0L64.0 32.0" fill="none" stroke="#2a2f45" stroke-width="3" stroke-linecap="round" stroke-linejoin="round" /><path d="M78.5 38.9L80.0 36.3" fill="none" stroke="#2a2f45" stroke-width="3" stroke-linecap="round" stroke-linejoin="round" /><path d="M89.1 49.5L91.7 48.0" fill="none" stroke="#2a2f45" stroke-width="3" stroke-linecap="round" stroke-linejoin="round" /><path d="M64 64V42" fill="none" stroke="#2a2f45" stroke-width="6" stroke-linecap="round" stroke-linejoin="round" /><path d="M64 64l16 9" fill="none" stroke="#ff7a45" stroke-width="6" stroke-linecap="round" stroke-linejoin="round" /><circle cx="64" cy="64" r="4.5" fill="#2a2f45"/></svg>
