<svg xmlns="http://www.w3.org/2000/svg" width="128" height="128" viewBox="0 0 128 128"><defs><radialGradient id="core" cx="0.72" cy="0.26" r="0.62"><stop offset="0" stop-color="#fff" stop-opacity="0.95"/><stop offset="0.18" stop-color="#5aa2ff" stop-opacity="0.85"/><stop offset="0.6" stop-color="#3a58e0" stop-opacity="0.35"/><stop offset="1" stop-color="#0a0714" stop-opacity="0"/></radialGradient><radialGradient id="deep" cx="0.3" cy="0.85" r="0.9"><stop offset="0" stop-color="#3a58e0" stop-opacity="0.35"/><stop offset="1" stop-color="#0a0714" stop-opacity="0"/></radialGradient><linearGradient id="arm" x1="0" y1="0" x2="1" y2="1"><stop offset="0" stop-color="#5aa2ff" stop-opacity="0"/><stop offset="0.5" stop-color="#5aa2ff" stop-opacity="0.75"/><stop offset="1" stop-color="#3a58e0" stop-opacity="0"/></linearGradient><clipPath id="plate"><rect x="8" y="8" width="112" height="112" rx="30"/></clipPath></defs><rect x="9" y="12" width="110" height="110" rx="30" fill="#000" opacity=".3"/><rect x="8" y="8" width="112" height="112" rx="30" fill="#0a0714"/><g clip-path="url(#plate)"><rect x="8" y="8" width="112" height="112" fill="url(#deep)"/><rect x="8" y="8" width="112" height="112" fill="url(#core)"/><path d="M96 30C70 26 34 44 22 78" fill="none" stroke="url(#arm)" stroke-width="11" stroke-linecap="round" opacity=".8"/><path d="M104 46C92 76 56 100 20 102" fill="none" stroke="url(#arm)" stroke-width="7" stroke-linecap="round" opacity=".5"/><circle cx="82" cy="12" r="2.4" fill="#fff" opacity="0.41"/><circle cx="78" cy="113" r="0.9" fill="#fff" opacity="0.79"/><circle cx="51" cy="111" r="1.3" fill="#fff" opacity="0.76"/><circle cx="37" cy="107" r="2.0" fill="#fff" opacity="0.70"/><circle cx="31" cy="41" r="2.0" fill="#fff" opacity="0.63"/><circle cx="107" cy="114" r="2.5" fill="#fff" opacity="0.54"/><circle cx="22" cy="39" r="2.3" fill="#fff" opacity="0.51"/><circle cx="23" cy="100" r="1.0" fill="#fff" opacity="0.86"/><circle cx="98" cy="112" r="2.3" fill="#fff" opacity="0.71"/><circle cx="45" cy="25" r="0.8" fill="#fff" opacity="0.41"/><circle cx="98" cy="70" r="1.8" fill="#fff" opacity="0.48"/><circle cx="112" cy="78" r="0.8" fill="#fff" opacity="0.58"/><circle cx="73" cy="31" r="2.4" fill="#fff" opacity="0.53"/><circle cx="62" cy="111" r="1.3" fill="#fff" opacity="0.70"/><circle cx="112" cy="24" r="2.3" fill="#fff" opacity="0.71"/></g><rect x="8.75" y="8.75" width="110.5" height="110.5" rx="29.25" fill="none" stroke="#fff" stroke-opacity=".16" stroke-width="1.5"/><path d="M30 44a8 8 0 0 1 8-8h52a8 8 0 0 1 8 8v40a8 8 0 0 1-8 8H38a8 8 0 0 1-8-8z" fill="#ffffff" /><path d="M34 44l30 22 30-22" fill="none" stroke="#3b6fe0" stroke-width="6" stroke-linecap="round" stroke-linejoin="round" /></svg>
