<svg xmlns="http://www.w3.org/2000/svg" width="128" height="128" viewBox="0 0 128 128"><defs><linearGradient id="bg" x1="0" y1="0" x2="0.35" y2="1"><stop offset="0" stop-color="#5aa2ff"/><stop offset="1" stop-color="#3a58e0"/></linearGradient><linearGradient id="hl" x1="0" y1="0" x2="0" y2="1"><stop offset="0" stop-color="#fff" stop-opacity=".30"/><stop offset=".45" stop-color="#fff" stop-opacity="0"/></linearGradient></defs><rect x="9" y="11" width="110" height="110" rx="27" fill="#000" opacity=".22"/><rect x="8" y="8" width="112" height="112" rx="28" fill="url(#bg)"/><rect x="8" y="8" width="112" height="112" rx="28" fill="url(#hl)"/><rect x="8.5" y="8.5" width="111" height="111" rx="27.5" fill="none" stroke="#fff" stroke-opacity=".18"/><path d="M30 44a8 8 0 0 1 8-8h52a8 8 0 0 1 8 8v40a8 8 0 0 1-8 8H38a8 8 0 0 1-8-8z" fill="#ffffff" /><path d="M34 44l30 22 30-22" fill="none" stroke="#3b6fe0" stroke-width="6" stroke-linecap="round" stroke-linejoin="round" /></svg>
