<svg xmlns="http://www.w3.org/2000/svg" width="128" height="128" viewBox="0 0 128 128"><defs><radialGradient id="core" cx="0.72" cy="0.26" r="0.62"><stop offset="0" stop-color="#fff" stop-opacity="0.95"/><stop offset="0.18" stop-color="#8fb1ff" stop-opacity="0.85"/><stop offset="0.6" stop-color="#4a5fd0" stop-opacity="0.35"/><stop offset="1" stop-color="#0a0714" stop-opacity="0"/></radialGradient><radialGradient id="deep" cx="0.3" cy="0.85" r="0.9"><stop offset="0" stop-color="#4a5fd0" stop-opacity="0.35"/><stop offset="1" stop-color="#0a0714" stop-opacity="0"/></radialGradient><linearGradient id="arm" x1="0" y1="0" x2="1" y2="1"><stop offset="0" stop-color="#8fb1ff" stop-opacity="0"/><stop offset="0.5" stop-color="#8fb1ff" stop-opacity="0.75"/><stop offset="1" stop-color="#4a5fd0" stop-opacity="0"/></linearGradient><clipPath id="plate"><rect x="8" y="8" width="112" height="112" rx="30"/></clipPath></defs><rect x="9" y="12" width="110" height="110" rx="30" fill="#000" opacity=".3"/><rect x="8" y="8" width="112" height="112" rx="30" fill="#0a0714"/><g clip-path="url(#plate)"><rect x="8" y="8" width="112" height="112" fill="url(#deep)"/><rect x="8" y="8" width="112" height="112" fill="url(#core)"/><path d="M96 30C70 26 34 44 22 78" fill="none" stroke="url(#arm)" stroke-width="11" stroke-linecap="round" opacity=".8"/><path d="M104 46C92 76 56 100 20 102" fill="none" stroke="url(#arm)" stroke-width="7" stroke-linecap="round" opacity=".5"/><circle cx="39" cy="35" r="2.3" fill="#fff" opacity="0.45"/><circle cx="32" cy="42" r="2.2" fill="#fff" opacity="0.52"/><circle cx="112" cy="80" r="2.4" fill="#fff" opacity="0.37"/><circle cx="12" cy="103" r="1.2" fill="#fff" opacity="0.39"/><circle cx="38" cy="87" r="1.0" fill="#fff" opacity="0.50"/><circle cx="17" cy="97" r="0.8" fill="#fff" opacity="0.40"/><circle cx="23" cy="85" r="2.4" fill="#fff" opacity="0.35"/><circle cx="113" cy="50" r="2.2" fill="#fff" opacity="0.43"/><circle cx="95" cy="47" r="1.6" fill="#fff" opacity="0.58"/><circle cx="109" cy="54" r="1.6" fill="#fff" opacity="0.79"/><circle cx="102" cy="59" r="1.5" fill="#fff" opacity="0.35"/><circle cx="22" cy="35" r="1.4" fill="#fff" opacity="0.83"/><circle cx="102" cy="54" r="1.2" fill="#fff" opacity="0.44"/><circle cx="96" cy="22" r="1.0" fill="#fff" opacity="0.72"/><circle cx="27" cy="99" r="2.1" fill="#fff" opacity="0.80"/><circle cx="98" cy="26" r="0.8" fill="#fff" opacity="0.81"/></g><rect x="8.75" y="8.75" width="110.5" height="110.5" rx="29.25" fill="none" stroke="#fff" stroke-opacity=".16" stroke-width="1.5"/><path d="M40 90h48a18 18 0 0 0 2-35.9 24 24 0 0 0-46.4 4.2A16 16 0 0 0 40 90z" fill="#ffffff" /><path d="M64 82V62M54 70l10-10 10 10" fill="none" stroke="#4a5fd0" stroke-width="7" stroke-linecap="round" stroke-linejoin="round" /></svg>
