<svg xmlns="http://www.w3.org/2000/svg" width="128" height="128" viewBox="0 0 128 128"><defs><linearGradient id="t" x1="0" y1="0" x2="0" y2="1"><stop offset="0" stop-color="#e9ecf3"/><stop offset="1" stop-color="#b9bfcc"/></linearGradient></defs><path d="M34 44h60l-6 60a8 8 0 0 1-8 7H48a8 8 0 0 1-8-7z" fill="#000" opacity=".15" transform="translate(0 3)"/><path d="M34 44h60l-6 60a8 8 0 0 1-8 7H48a8 8 0 0 1-8-7z" fill="url(#t)"/><rect x="28" y="34" width="72" height="12" rx="6" fill="#d5d9e3"/><rect x="54" y="28" width="20" height="8" rx="3" fill="#b9bfcc"/><path d="M52 58l2 40M64 58v40M76 58l-2 40" stroke="#8d95a8" stroke-width="4" stroke-linecap="round"/></svg>
